<?xml version="1.0" encoding="UTF-8" standalone="no"?>
<svg
   xmlns:dc="http://purl.org/dc/elements/1.1/"
   xmlns:cc="http://creativecommons.org/ns#"
   xmlns:rdf="http://www.w3.org/1999/02/22-rdf-syntax-ns#"
   xmlns:svg="http://www.w3.org/2000/svg"
   xmlns="http://www.w3.org/2000/svg"
   viewBox="0 0 174.67999 174.67999"
   height="174.67999"
   width="174.67999"
   xml:space="preserve"
   id="svg2"
   version="1.1"><metadata
     id="metadata8"><rdf:RDF><cc:Work
         rdf:about=""><dc:format>image/svg+xml</dc:format><dc:type
           rdf:resource="http://purl.org/dc/dcmitype/StillImage" /></cc:Work></rdf:RDF></metadata><defs
     id="defs6" /><g
     transform="matrix(1.3333333,0,0,-1.3333333,0,174.68)"
     id="g10"><g
       transform="translate(5.978,5.978)"
       id="g12"><g
         id="g14"><g
           id="g16"><g
             id="g18"><path
               id="path20"
               style="fill:#389826;fill-opacity:1;fill-rule:nonzero;stroke:none"
               d="m 39.11873,101.76492 c 0,5.94924 -4.82269,10.77193 -10.77193,10.77193 -5.94923,0 -10.77193,-4.82269 -10.77193,-10.77193 0,-5.94923 4.8227,-10.77192 10.77193,-10.77192 5.94924,0 10.77193,4.82269 10.77193,10.77192 z" /></g><g
             id="g22"><path
               id="path24"
               style="fill:#cb3c33;fill-opacity:1;fill-rule:nonzero;stroke:none"
               d="m 26.36275,79.65445 c 0,5.94923 -4.8227,10.77193 -10.77193,10.77193 -5.94923,0 -10.77192,-4.8227 -10.77192,-10.77193 0,-5.94923 4.82269,-10.77193 10.77192,-10.77193 5.94923,0 10.77193,4.8227 10.77193,10.77193 z" /></g><g
             id="g26"><path
               id="path28"
               style="fill:#9558b2;fill-opacity:1;fill-rule:nonzero;stroke:none"
               d="m 51.8747,79.65445 c 0,5.94923 -4.8227,10.77193 -10.77193,10.77193 -5.94924,0 -10.77193,-4.8227 -10.77193,-10.77193 0,-5.94923 4.82269,-10.77193 10.77193,-10.77193 5.94923,0 10.77193,4.8227 10.77193,10.77193 z" /></g><g
             id="g30"><path
               id="path32"
               style="fill:#cb3c33;fill-opacity:1;fill-rule:nonzero;stroke:none"
               d="M 62.36288,62.36288 V 119.0565 H 119.0565 V 62.36288 Z" /></g><g
             id="g34"><path
               id="path36"
               style="fill:#389826;fill-opacity:1;fill-rule:nonzero;stroke:none"
               d="M 0,0 V 56.69362 H 56.69362 V 0 Z" /></g><g
             id="g38"><path
               id="path40"
               style="fill:#9558b2;fill-opacity:1;fill-rule:nonzero;stroke:none"
               d="M 62.36288,29.19717 V 56.6936 H 89.85931 V 29.19717 Z" /></g><g
             id="g42"><path
               id="path44"
               style="fill:#cb3c33;fill-opacity:1;fill-rule:nonzero;stroke:none"
               d="M 91.56006,29.19717 V 56.6936 h 27.49643 V 29.19717 Z" /></g><g
             id="g46"><path
               id="path48"
               style="fill:#389826;fill-opacity:1;fill-rule:nonzero;stroke:none"
               d="M 62.36288,0 V 27.49641 H 89.85931 V 0 Z" /></g><g
             id="g50"><path
               id="path52"
               style="fill:#9558b2;fill-opacity:1;fill-rule:nonzero;stroke:none"
               d="m 91.56006,0 v 27.49641 h 27.49643 V 0 Z" /></g></g></g></g></g></svg>